<?xml version="1.0" encoding="utf-8"?>
<!-- Generator: Adobe Illustrator 16.0.3, SVG Export Plug-In . SVG Version: 6.00 Build 0)  -->
<!DOCTYPE svg PUBLIC "-//W3C//DTD SVG 1.1//EN" "http://www.w3.org/Graphics/SVG/1.1/DTD/svg11.dtd">
<svg version="1.1" id="Calque_1" xmlns="http://www.w3.org/2000/svg" xmlns:xlink="http://www.w3.org/1999/xlink" x="0px" y="0px"
	 width="224.728px" height="235.322px" viewBox="0 0 224.728 235.322" enable-background="new 0 0 224.728 235.322"
	 xml:space="preserve">
<g>
	<g>
		<path fill="#83B81A" d="M64.768,7.291c0,0-17.547,0-26.697,0c-15.428,0-26.429,5.231-25.271,18.655
			c2.07,23.998,45.094,17.626,52.319,47.968c5.298-26.728-20.302-29.14-32.658-38.638c-4.834-3.718-5.781-14.187,4.148-14.187
			c3.447,0,20.854,0,20.854,0L64.768,7.291z"/>
		<path fill="#00486F" d="M3.72,25.994c0,26.489,21.028,32.016,33.526,39.422c5.247,3.112,5.778,14.187-4.153,14.187
			c-3.448,0-29.106,0-29.106,0v40.601l14.486-6.232V93.403c4.714,0,9.633,0,13.162,0c15.431,0,25.269-5.185,25.269-18.66
			C56.904,46.943,9.663,53.923,3.72,25.994z"/>
	</g>
	<path fill="#6B6C6E" d="M109.645,21.977l-6.833-12.076c-1.1-1.912-1.712-2.831-3.478-2.831c-1.723,0-2.715,0.168-2.715,0.168
		v19.031h3.235V11.195l7.585,13.339c0.862,1.473,1.541,1.891,3.042,1.891c1.477,0,2.401-0.113,2.401-0.113V7.228h-3.237V21.977z"/>
	<path fill="#6B6C6E" d="M130.104,22.533l-6.063-15.207l-0.034-0.099h-3.387l6.747,17.07c0.666,1.651,1.436,2.322,2.764,2.294
		c1.262-0.027,1.824-0.027,1.824-0.027l7.377-19.336h-3.352L130.104,22.533z"/>
	<polyline fill="#6B6C6E" points="221.772,2.505 218.394,2.505 215.575,6.306 217.704,6.306 221.772,2.505 	"/>
	<path fill="#6B6C6E" d="M90.172,19.706c0,2.553-1.411,3.952-4.058,3.952c-2.657,0-4.034-1.399-4.034-3.952V7.327h-3.192V19.98
		c0,3.657,2.685,6.506,7.32,6.506c4.543,0,7.326-2.849,7.326-6.506V7.327h-3.362V19.706z"/>
	<rect x="116.038" y="7.376" fill="#6B6C6E" width="3.523" height="18.793"/>
	<polygon fill="#6B6C6E" points="193.261,10.098 198.386,10.098 198.386,26.169 201.909,26.169 201.909,10.098 207.03,10.098 
		207.03,7.376 193.261,7.376 	"/>
	<rect x="187.96" y="7.376" fill="#6B6C6E" width="3.523" height="18.793"/>
	<path fill="#6B6C6E" d="M179.815,15.028c-1.91-0.896-3.561-1.674-3.561-2.94c0-1.186,0.676-1.835,1.895-1.835h6.502V7.284h-6.164
		c-3.248,0-5.352,1.936-5.352,4.938c0,3.182,2.893,4.551,5.438,5.754c2.018,0.956,3.771,1.782,3.771,3.27
		c0,1.063-0.332,2.047-2.732,2.047h-6.605v2.968h7.051c3.332,0,5.408-2.004,5.408-5.225
		C185.466,17.69,182.331,16.217,179.815,15.028z"/>
	<path fill="#6B6C6E" d="M170.919,13.245c0-6.907-6.738-6.007-13.48-5.975h-1.311v18.923h3.145V10.139l0,0
		c6.605-0.425,8.52,0.532,8.52,3.106c0,2.377-2.027,3.25-5.635,3.25h-0.613l-0.934,2.764l6.701,7.013h4.002l-6.859-7.136
		C169.704,18.549,170.919,16.385,170.919,13.245z"/>
	<polygon fill="#6B6C6E" points="141.294,26.169 153.05,26.12 153.05,23.398 144.819,23.398 144.819,17.947 151.782,17.947 
		152.823,15.229 144.819,15.229 144.819,10.098 153.05,10.098 153.05,7.376 141.294,7.376 	"/>
	<polygon fill="#6B6C6E" points="209.21,26.169 220.964,26.12 220.964,23.398 212.735,23.398 212.735,17.947 219.698,17.947 
		220.739,15.229 212.735,15.229 212.735,10.098 220.964,10.098 220.964,7.376 209.21,7.376 	"/>
	<path fill="#6B6C6E" d="M176.042,49.014c0-13.792-13.463-11.999-26.932-11.928h-2.617v37.791h6.287V42.811l0,0
		c13.188-0.851,17.016,1.062,17.016,6.204c0,4.748-4.051,6.492-11.254,6.492h-1.225l-1.871,5.521l13.393,14.005h7.99l-13.703-14.258
		C173.614,59.606,176.042,55.289,176.042,49.014z"/>
	<path fill="#6B6C6E" d="M89.895,61.028c14.053,1.15,18.625-5.296,18.625-12.014c0-13.792-13.462-11.999-26.932-11.928H78.97v37.791
		h6.291V42.811l0,0c13.187-0.851,17.013,1.062,17.013,6.204c0,4.748-3.917,6.9-11.253,6.492h-1.223l-1.756,5.261L89.895,61.028z"/>
	<g>
		<path fill="#6B6C6E" d="M182.716,36.728h7.047v38.305h-7.047V36.728z"/>
	</g>
	<path fill="#6B6C6E" d="M138.44,75.033h6.941l-17.619-38.271h-7.566l-15.608,38.333l6.862-0.063l5.075-12.823h16.227L138.44,75.033
		z M118.647,56.849l5.521-13.954l6.195,13.954H118.647z"/>
	<path fill="#6B6C6E" d="M211.032,74.876h-14.102v-5.921h13.217c4.789,0,5.453-1.971,5.453-4.098c0-2.971-3.492-4.625-7.537-6.537
		c-5.1-2.41-10.873-5.143-10.873-11.508c0-6,4.199-9.868,10.707-9.868h13.023v5.929h-13.705c-2.439,0-3.789,1.305-3.789,3.678
		c0,2.525,3.303,4.079,7.117,5.88c5.031,2.363,11.299,5.316,11.299,12.005C221.843,70.878,217.7,74.876,211.032,74.876
		L211.032,74.876z"/>
	<path fill="#6B6C6E" d="M93.328,121.095H79.221v-5.93h13.212c4.797,0,5.458-1.973,5.458-4.102c0-2.968-3.496-4.617-7.54-6.535
		c-5.096-2.407-10.871-5.14-10.871-11.505c0-5.992,4.199-9.868,10.705-9.868h13.029v5.929H89.501c-2.438,0-3.785,1.306-3.785,3.679
		c0,2.532,3.303,4.083,7.119,5.876c5.031,2.374,11.296,5.329,11.296,12.01C104.131,117.091,99.995,121.095,93.328,121.095
		L93.328,121.095z"/>
	<path fill="#6B6C6E" d="M137.767,83.142h-7.389v24.629c0,5.107-2.824,7.899-8.123,7.899c-5.295,0-8.063-2.792-8.063-7.899V83.142
		h-6.379v25.164c0,7.318,5.364,13.021,14.639,13.021c9.076,0,14.645-5.702,14.645-13.021v-19.44"/>
	<path fill="#6B6C6E" d="M137.638,119.792c0,0,1.428,1.07,7.936,1.041c13.559-0.063,19.354-7.996,19.354-19.209
		c0-10.972-8.025-18.482-16.711-18.482h-17.838l3.285,5.908h12.021c9.564,0,12.547,7.662,12.547,12.801
		c0,5.605-2.701,13.391-12.098,13.391c-2.313,0-5.887-0.627-5.887-0.627L137.638,119.792z"/>
</g>
<g>
	<rect x="3.326" y="139.313" fill="#6B6C6E" width="217.697" height="1.5"/>
</g>
<g>
	<polyline fill="#00486F" points="220.999,231.535 220.999,135.295 3.407,135.295 3.407,231.535 220.999,231.535 	"/>
	<g>
		<circle fill="#FFFFFF" cx="199.282" cy="157.804" r="5.214"/>
		<path fill="#FFFFFF" d="M188.044,170.843c1.781,0,3.225-1.442,3.225-3.227c0-1.781-1.443-3.222-3.225-3.222
			s-3.225,1.44-3.225,3.222C184.819,169.401,186.263,170.843,188.044,170.843z"/>
		<rect x="62.158" y="202.215" fill="#FFFFFF" width="2.772" height="12.6"/>
		<path fill="#FFFFFF" d="M58.18,206.409v-0.036c0-2.593-1.782-4.158-4.751-4.158h-5.762v12.6h2.772v-4.029h2.179l2.7,4.029h3.24
			l-3.077-4.499C57.082,209.721,58.18,208.442,58.18,206.409z M55.372,206.553c0,1.062-0.773,1.781-2.124,1.781h-2.808v-3.616h2.754
			c1.351,0,2.178,0.61,2.178,1.799V206.553z"/>
		<path fill="#FFFFFF" d="M36.417,202.125l-5.4,12.689h2.827l1.151-2.825h5.329l1.152,2.825h2.897l-5.4-12.689H36.417z
			 M35.985,209.54l1.674-4.085l1.674,4.085H35.985z"/>
		<path fill="#FFFFFF" d="M25.132,202.215h-5.146v12.6h2.77v-3.777h2.107c2.825,0,5.094-1.514,5.094-4.432v-0.034
			C29.957,203.996,28.139,202.215,25.132,202.215z M27.149,206.66c0,1.081-0.81,1.91-2.196,1.91h-2.197v-3.853h2.142
			c1.386,0,2.251,0.664,2.251,1.909V206.66z"/>
		<path fill="#FFFFFF" d="M149.806,202.125l-5.4,12.689h2.824l1.154-2.825h5.328l1.15,2.825h2.9l-5.4-12.689H149.806z
			 M149.374,209.54l1.674-4.085l1.674,4.085H149.374z"/>
		<path fill="#FFFFFF" d="M74.542,207.272c-2.178-0.558-2.718-0.827-2.718-1.656v-0.034c0-0.613,0.558-1.1,1.621-1.1
			s2.159,0.468,3.276,1.243l1.44-2.089c-1.278-1.025-2.844-1.601-4.681-1.601c-2.573,0-4.411,1.512-4.411,3.798v0.034
			c0,2.502,1.639,3.204,4.178,3.853c2.104,0.541,2.537,0.899,2.537,1.603v0.035c0,0.739-0.684,1.188-1.818,1.188
			c-1.441,0-2.628-0.593-3.761-1.531l-1.64,1.964c1.512,1.349,3.438,2.016,5.346,2.016c2.718,0,4.627-1.404,4.627-3.906v-0.037
			C78.539,208.856,77.099,207.939,74.542,207.272z"/>
		<polygon fill="#FFFFFF" points="164.021,207.272 161.019,202.215 157.778,202.215 162.62,209.847 162.62,214.814 165.39,214.814 
			165.39,209.793 170.231,202.215 167.085,202.215 		"/>
		<polygon fill="#FFFFFF" points="135.764,202.215 132.993,202.215 132.993,214.814 142.046,214.814 142.046,212.295 
			135.764,212.295 		"/>
		<path fill="#FFFFFF" d="M107.917,202.125l-5.4,12.689h2.826l1.152-2.825h5.329l1.153,2.825h2.897l-5.4-12.689H107.917z
			 M107.484,209.54l1.675-4.085l1.673,4.085H107.484z"/>
		<path fill="#FFFFFF" d="M124.353,212.475c-2.159,0-3.652-1.8-3.652-3.959v-0.036c0-2.16,1.527-3.925,3.652-3.925
			c1.259,0,2.249,0.541,3.222,1.422l1.765-2.034c-1.17-1.151-2.591-1.944-4.969-1.944c-3.869,0-6.57,2.935-6.57,6.518v0.035
			c0,3.618,2.755,6.48,6.463,6.48c2.431,0,3.869-0.863,5.168-2.25l-1.766-1.782C126.673,211.9,125.792,212.475,124.353,212.475z"/>
		<rect x="81.688" y="207.921" fill="#FFFFFF" width="5.544" height="2.628"/>
		<path fill="#FFFFFF" d="M96.106,207.272c-2.177-0.558-2.717-0.827-2.717-1.656v-0.034c0-0.613,0.558-1.1,1.62-1.1
			c1.061,0,2.161,0.468,3.276,1.243l1.439-2.089c-1.277-1.025-2.842-1.601-4.68-1.601c-2.573,0-4.409,1.512-4.409,3.798v0.034
			c0,2.502,1.639,3.204,4.174,3.853c2.106,0.541,2.538,0.899,2.538,1.603v0.035c0,0.739-0.683,1.188-1.817,1.188
			c-1.44,0-2.629-0.593-3.762-1.531l-1.638,1.964c1.512,1.349,3.438,2.016,5.346,2.016c2.717,0,4.626-1.404,4.626-3.906v-0.037
			C100.103,208.856,98.662,207.939,96.106,207.272z"/>
		<rect x="66.888" y="176.317" fill="#FFFFFF" width="3.467" height="19.53"/>
		<path fill="#FFFFFF" d="M106.599,196.286c3.282,0,5.755-1.128,8.018-3.652l0.22-0.243l-2.233-2.001l-0.219,0.229
			c-1.669,1.75-3.484,2.562-5.712,2.562c-3.306,0-5.789-2.285-6.273-5.729h14.89l0.032-0.292c0.038-0.348,0.038-0.647,0.038-0.912
			c0-6.181-3.667-10.329-9.125-10.329c-5.348,0-9.382,4.375-9.382,10.182S101.042,196.286,106.599,196.286z M106.161,178.947
			c3.662,0,5.31,2.915,5.659,5.767h-11.421C100.875,181.301,103.204,178.947,106.161,178.947z"/>
		<path fill="#FFFFFF" d="M27.467,196.249c2.568,0,4.585-0.974,6.132-2.969v2.567h3.431v-19.529h-3.431v11.134
			c0,3.289-2.19,5.584-5.329,5.584c-3.063,0-4.891-2.007-4.891-5.364v-11.354h-3.468v12.046
			C19.911,193.154,22.878,196.249,27.467,196.249z"/>
		<path fill="#FFFFFF" d="M53.018,175.919c-2.562,0-4.62,0.99-6.133,2.952v-2.554h-3.467v19.53h3.467v-11.134
			c0-3.287,2.192-5.584,5.329-5.584c3.063,0,4.891,2.005,4.891,5.365v11.353h3.468v-12.045
			C60.574,179.012,57.608,175.919,53.018,175.919z"/>
		<polygon fill="#FFFFFF" points="86.303,195.994 94.798,176.318 91.049,176.318 84.883,191.434 78.752,176.318 74.929,176.318 
			83.388,195.994 		"/>
		<path fill="#FFFFFF" d="M123.826,180.227v-3.908h-3.468v19.529h3.468V188c0-5.057,2.808-8.322,7.155-8.322h0.549v-3.674
			l-0.316-0.011C128.183,175.865,125.497,177.44,123.826,180.227z"/>
		<path fill="#FFFFFF" d="M169.774,169.879l-3.467,1.915v4.524h-3.664v3.139h3.664v11.062c0,3.646,2.008,5.657,5.658,5.657
			c1.314,0,2.439-0.269,3.543-0.841l0.18-0.091v-3.133l-0.473,0.228c-0.92,0.442-1.672,0.624-2.598,0.624
			c-1.941,0-2.844-0.893-2.844-2.811v-10.695h5.988v-3.139h-5.988V169.879z"/>
		<path fill="#FFFFFF" d="M188.253,175.919c-5.346,0-9.381,4.375-9.381,10.182s4.189,10.186,9.744,10.186
			c3.283,0,5.758-1.128,8.02-3.652l0.221-0.243l-2.234-2.001l-0.219,0.229c-1.67,1.75-3.484,2.562-5.711,2.562
			c-3.307,0-5.789-2.285-6.275-5.729h14.889l0.035-0.292c0.037-0.347,0.037-0.647,0.037-0.912
			C197.378,180.067,193.712,175.919,188.253,175.919z M182.417,184.714c0.477-3.413,2.805-5.767,5.762-5.767
			c3.662,0,5.311,2.915,5.662,5.767H182.417z"/>
		<path fill="#FFFFFF" d="M149.485,190.226v-0.074c0-3.826-3.785-4.965-6.291-5.715l-0.068-0.023
			c-2.34-0.71-4.555-1.383-4.555-2.982c0-1.442,1.336-2.41,3.324-2.41c1.717,0,3.639,0.63,5.406,1.772l0.285,0.183l1.613-2.676
			l-0.262-0.174c-2.025-1.339-4.631-2.135-6.971-2.135c-3.977,0-6.752,2.355-6.752,5.73v0.072c0,3.805,3.746,4.867,6.48,5.646
			c2.533,0.706,4.471,1.376,4.471,3.076c0,1.595-1.439,2.664-3.578,2.664c-2.102,0-4.293-0.809-6.338-2.343l-0.268-0.201
			l-1.799,2.533l0.24,0.194c2.168,1.757,5.238,2.849,8.016,2.849C146.657,196.213,149.485,193.806,149.485,190.226z"/>
		<rect x="155.032" y="176.317" fill="#FFFFFF" width="3.469" height="19.53"/>
	</g>
</g>
</svg>
